<svg width="24" height="24" viewBox="0 0 24 24" fill="none" xmlns="http://www.w3.org/2000/svg">
<path d="M19.321 5.562C19.1691 5.48345 19.0213 5.39734 18.878 5.304C18.4617 5.02872 18.0799 4.7044 17.741 4.338C16.892 3.367 16.575 2.382 16.459 1.693H16.463C16.366 1.12 16.406 0.75 16.413 0.75H12.548V15.693C12.548 15.893 12.548 16.092 12.54 16.288C12.54 16.312 12.537 16.334 12.536 16.361C12.536 16.371 12.536 16.383 12.533 16.394V16.403C12.4924 16.939 12.3207 17.4569 12.033 17.9109C11.7453 18.365 11.3504 18.7414 10.883 19.007C10.3954 19.2844 9.84397 19.4298 9.28301 19.429C7.48301 19.429 6.02301 17.961 6.02301 16.148C6.02301 14.334 7.48301 12.866 9.28301 12.866C9.62401 12.866 9.96301 12.92 10.287 13.026L10.292 9.09C9.30803 8.96305 8.30841 9.04147 7.35625 9.3203C6.4041 9.59913 5.52008 10.0723 4.76001 10.71C4.09387 11.2885 3.5338 11.9789 3.10501 12.75C2.94201 13.031 2.32601 14.162 2.25201 15.996C2.20501 17.036 2.51801 18.116 2.66701 18.561V18.571C2.76001 18.833 3.12401 19.729 3.71601 20.484C4.19341 21.09 4.75746 21.6224 5.39001 22.064V22.054L5.39901 22.064C7.26901 23.334 9.34401 23.251 9.34401 23.251C9.70301 23.236 10.906 23.251 12.272 22.604C13.787 21.886 14.649 20.817 14.649 20.817C15.2001 20.1781 15.6384 19.45 15.945 18.664C16.295 17.744 16.411 16.642 16.411 16.202V8.273C16.458 8.301 17.083 8.714 17.083 8.714C17.083 8.714 17.983 9.291 19.386 9.666C20.392 9.933 21.749 9.99 21.749 9.99V6.153C21.274 6.205 20.309 6.055 19.32 5.563L19.321 5.562Z" fill="#FCC21B"/>
</svg>
