<svg width="24" height="24" viewBox="0 0 24 24" fill="none" xmlns="http://www.w3.org/2000/svg">
<path d="M14.2 2.875C12.9734 2.875 11.797 3.36228 10.9296 4.22963C10.0623 5.09699 9.575 6.27337 9.575 7.5V10.075H7.1C6.976 10.075 6.875 10.175 6.875 10.3V13.7C6.875 13.824 6.975 13.925 7.1 13.925H9.575V20.9C9.575 21.024 9.675 21.125 9.8 21.125H13.2C13.324 21.125 13.425 21.025 13.425 20.9V13.925H15.922C16.025 13.925 16.115 13.855 16.14 13.755L16.99 10.355C16.9984 10.3218 16.9991 10.2872 16.992 10.2537C16.985 10.2202 16.9704 10.1888 16.9494 10.1618C16.9283 10.1348 16.9014 10.1129 16.8707 10.0979C16.84 10.0829 16.8062 10.075 16.772 10.075H13.425V7.5C13.425 7.39823 13.445 7.29745 13.484 7.20342C13.5229 7.10939 13.58 7.02396 13.652 6.95199C13.724 6.88003 13.8094 6.82294 13.9034 6.78399C13.9974 6.74505 14.0982 6.725 14.2 6.725H16.8C16.924 6.725 17.025 6.625 17.025 6.5V3.1C17.025 2.976 16.925 2.875 16.8 2.875H14.2Z" fill="#FCC21B"/>
</svg>
