<svg width="72" height="72" viewBox="0 0 72 72" fill="none" xmlns="http://www.w3.org/2000/svg">
<g clip-path="url(#clip0_3_18)">
<path d="M66.1123 45.2761C67.6997 31.0298 60.3861 18.8901 49.7773 18.1612C39.168 17.4324 29.2812 28.3903 27.6941 42.6366C26.1068 56.8827 33.4204 69.0222 44.0294 69.751C54.6382 70.4798 64.5252 59.5219 66.1123 45.2759" fill="#D04B06"/>
<path d="M71.7635 45.2756C73.3506 31.0296 66.0369 18.8898 55.4279 18.161C44.8192 17.4322 34.9321 28.3901 33.345 42.6361C31.7579 56.8822 39.0713 69.0217 49.6803 69.7508C60.289 70.4796 70.1761 59.5217 71.7635 45.2756Z" fill="#C65C14"/>
<path d="M28.0007 69.751C38.6097 69.0222 45.9233 56.8824 44.3362 42.6364C42.7488 28.3903 32.8621 17.4324 22.253 18.1612C11.6443 18.8901 4.33066 31.0298 5.91775 45.2759C7.50485 59.5219 17.3919 70.4798 28.0007 69.751Z" fill="#D04B06"/>
<path d="M22.3515 69.7506C32.9603 69.0217 40.2739 56.882 38.6868 42.636C37.0997 28.3899 27.2127 17.432 16.6039 18.1608C5.99487 18.8896 -1.31903 31.0294 0.26834 45.2754C1.85572 59.5215 11.7425 70.4794 22.3515 69.7506Z" fill="#C65C14"/>
<path d="M71.7128 47.249C73.2999 33.003 65.9863 20.8635 55.3773 20.1346C44.7685 19.4058 34.8814 30.3635 33.2943 44.6098C31.707 58.8558 39.0206 70.9953 49.6296 71.7242C60.2384 72.453 70.1254 61.4951 71.7128 47.249Z" fill="#F17008"/>
<path d="M27.5504 26.7902L26.8085 21.4728C26.8085 21.4728 27.2171 18.6304 34.6722 18.2231C42.1273 17.8158 31.2432 5.18137 31.2432 5.18137C31.2432 5.18137 33.7461 -1.87529 37.8526 0.635432C41.9588 3.14616 42.1237 17.8149 42.1237 17.8149C42.1237 17.8149 44.7719 23.3346 45.0439 25.2848" fill="#8F6646"/>
<path d="M66.0617 47.2494C67.649 33.0034 60.3354 20.8639 49.7267 20.1348C39.1173 19.406 29.2306 30.3639 27.6435 44.61C26.0561 58.856 33.3697 70.9957 43.9785 71.7246C54.5878 72.4534 64.4746 61.4955 66.0617 47.2494Z" fill="#F48D39"/>
<path d="M22.2997 71.7244C32.9085 70.9955 40.2224 58.856 38.635 44.61C37.0479 30.3637 27.1611 19.406 16.5521 20.1348C5.94336 20.8636 -1.37055 33.0032 0.216827 47.2492C1.80392 61.4953 11.6907 72.4532 22.2997 71.7244Z" fill="#F17008"/>
<path d="M27.9506 71.7248C38.5594 70.996 45.873 58.8563 44.2856 44.6102C42.6986 30.3641 32.8118 19.4062 22.2027 20.1351C11.594 20.8639 4.28036 33.0036 5.86746 47.2497C7.45455 61.4957 17.3419 72.4537 27.9506 71.7248Z" fill="#F48D39"/>
<path d="M34.6601 71.8229C45.3096 71.8229 53.9426 60.2301 53.9426 45.9296C53.9426 31.6291 45.3096 20.0363 34.6601 20.0363C24.0107 20.0363 15.3776 31.6291 15.3776 45.9296C15.3776 60.2301 24.0107 71.8229 34.6601 71.8229Z" fill="#F17008"/>
</g>
<defs>
<clipPath id="clip0_3_18">
<rect width="72" height="72" fill="white"/>
</clipPath>
</defs>
</svg>
